<svg width="90" height="55" viewBox="0 0 90 55" fill="none" xmlns="http://www.w3.org/2000/svg">
<rect width="32" height="32" transform="translate(29 12)" fill="white"/>
<path d="M59 37.9378C59 39.3427 58.6341 40.2636 58.0691 40.9083C57.4889 41.5705 56.6 42.0543 55.3502 42.3859C53.006 43.0077 49.8 43.0036 46.0281 42.9987C45.6899 42.9982 45.3471 42.9978 45 42.9978C44.6529 42.9978 44.3101 42.9982 43.9719 42.9987C40.2 43.0036 36.994 43.0077 34.6498 42.3859C33.4 42.0543 32.5111 41.5705 31.9309 40.9083C31.3659 40.2636 31 39.3427 31 37.9378C31 35.1465 32.465 32.6912 34.9748 30.8979C37.4936 29.0982 41.0319 28 45 28C48.9681 28 52.5064 29.0982 55.0252 30.8979C57.535 32.6912 59 35.1465 59 37.9378Z" stroke="#E2E2E2" stroke-width="2"/>
<circle cx="45" cy="19" r="6" stroke="#E2E2E2" stroke-width="2"/>
</svg>
